# xmcd CD database file
#
# Track frame offsets:
#	150
#	29163
#	60432
#	85228
#	108990
#	139244
#	193666
#	238088
#
# Disc length: 3782 seconds
#
# Revision: 0
# Processed by: cddbd v1.5.2PL0 Copyright (c) Steve Scherf et al.
# Submitted via: CDex 1.51
#
DISCID=6e0ec408
DTITLE=Dzem - Pamieci Pawla Bergera CD1
DYEAR=2007
DGENRE=Blues
TTITLE0=W drodze do nieba
TTITLE1=Mala aleja roz
TTITLE2=Dzikosc mego serca
TTITLE3=Czlowieku co sie z toba dzieje
TTITLE4=Cala w trawie
TTITLE5=Oh slodka
TTITLE6=Jesiony
TTITLE7=Modlitwa III
EXTD=YEAR: 2007
EXTT0=
EXTT1=
EXTT2=
EXTT3=
EXTT4=
EXTT5=
EXTT6=
EXTT7=
PLAYORDER=
